Coordinates
version=1
nRows=12
nColumns=46
inDegrees=yes

Units are S.I. units (second, meters, Newtons, ...)
Angles are in degrees.

endheader
time	pelvis_tilt	pelvis_list	pelvis_rotation	pelvis_tx	pelvis_ty	pelvis_tz	bb_angle	bb_tx	bb_ty	bb_tz	hip_flexion_r	hip_adduction_r	hip_rotation_r	knee_angle_r	knee_angle_r_beta	ankle_angle_r	subtalar_angle_r	mtp_angle_r	crank_angle_r	hip_flexion_l	hip_adduction_l	hip_rotation_l	knee_angle_l	knee_angle_l_beta	ankle_angle_l	subtalar_angle_l	mtp_angle_l	crank_angle_l	lumbar_extension	lumbar_bending	lumbar_rotation	arm_flex_r	arm_add_r	arm_rot_r	elbow_flex_r	pro_sup_r	wrist_flex_r	wrist_dev_r	arm_flex_l	arm_add_l	arm_rot_l	elbow_flex_l	pro_sup_l	wrist_flex_l	wrist_dev_l
      7.50500000	     -8.95805630	      6.81489961	      1.75267512	      0.19229307	      1.06235514	     -0.29619115	      0.00000000	      0.50000000	      0.00000000	      0.25000000	     57.14238084	    -11.08457075	      6.60347010	     89.03930775	      1.55402908	    -20.65143793	    -13.84763096	      0.00000000	      0.00000000	     66.39030971	     -1.99271481	     -3.80013292	     71.39995287	      1.24616426	      2.52366941	     -6.65964845	      0.00000000	      0.00000000	    -71.83103070	     -8.14517407	     -3.69970353	     88.57151765	    -35.12645937	     40.06432021	     64.92916429	     40.28584783	      0.00000000	      0.00000000	     89.59669819	    -16.13061544	     35.29673202	     68.05788343	     37.07669143	      0.00000000	      0.00000000
      7.51000000	     -8.76138835	      6.80318011	      1.69868655	      0.19200182	      1.06198646	     -0.29618459	      0.00000000	      0.50000000	      0.00000000	      0.25000000	     58.31864991	    -10.90616696	      7.03345789	     91.32493662	      1.59392083	    -20.40284949	    -13.87323299	      0.00000000	      0.00000000	     64.88216172	     -1.83459955	     -3.82965981	     69.09715326	      1.20597283	      0.94688757	     -6.79568917	      0.00000000	      0.00000000	    -71.99547290	     -8.09365267	     -3.76932394	     88.60136766	    -34.98842348	     39.94274620	     65.01112858	     40.28707937	      0.00000000	      0.00000000	     89.59343590	    -16.22678320	     35.16507596	     68.11102280	     36.96342641	      0.00000000	      0.00000000
      7.51500000	     -8.57205905	      6.30555510	      1.55176693	      0.19159657	      1.06131328	     -0.29619712	      0.00000000	      0.50000000	      0.00000000	      0.25000000	     59.45423938	    -10.29675399	      7.08494289	     93.51882517	      1.63221141	    -20.21125653	    -13.98364269	      0.00000000	      0.00000000	     63.50271164	     -2.09610776	     -3.49161571	     67.02326133	      1.16977659	     -0.17154183	     -6.34575831	      0.00000000	      0.00000000	    -71.99978501	     -7.84298672	     -3.23348976	     88.62875138	    -34.83910813	     39.87467614	     65.05325372	     40.29383255	      0.00000000	      0.00000000	     89.57675753	    -16.35033922	     35.05800760	     68.15135686	     36.95497749	      0.00000000	      0.00000000
      7.52000000	     -8.08483623	      6.66340822	      1.42423368	      0.19130903	      1.06163307	     -0.29651514	      0.00000000	      0.50000000	      0.00000000	      0.25000000	     60.47495772	    -10.52722595	      7.69637240	     95.71537081	      1.67054837	    -19.82632938	    -13.82687596	      0.00000000	      0.00000000	     61.40639641	     -1.69985803	     -3.97193718	     64.40382694	      1.12405883	     -2.04295778	     -7.32031746	      0.00000000	      0.00000000	    -72.56507785	     -7.91564003	     -3.77106950	     88.74527474	    -34.47474654	     39.65700884	     65.13971239	     40.24976139	      0.00000000	      0.00000000	     89.59107662	    -16.57686549	     34.74403117	     68.24291813	     36.69855183	      0.00000000	      0.00000000
      7.52500000	     -7.79480005	      6.51751934	      1.19305585	      0.19099940	      1.06135038	     -0.29656496	      0.00000000	      0.50000000	      0.00000000	      0.25000000	     61.65073924	    -10.21175224	      7.97465824	     97.84623127	      1.70773890	    -19.50941333	    -13.87496514	      0.00000000	      0.00000000	     59.66436373	     -1.75230711	     -3.97439636	     62.10637097	      1.08396066	     -3.60861126	     -6.96142323	      0.00000000	      0.00000000	    -72.78857745	     -7.91231554	     -3.61660251	     88.80963202	    -34.36918192	     39.53128127	     65.17037905	     40.22929839	      0.00000000	      0.00000000	     89.58347955	    -16.67396710	     34.68672552	     68.29294251	     36.63502133	      0.00000000	      0.00000000
      7.53000000	     -7.75580694	      6.01920473	      0.91565427	      0.19076773	      1.06084631	     -0.29665985	      0.00000000	      0.50000000	      0.00000000	      0.25000000	     63.01026320	     -9.56391683	      8.00283757	     99.85781439	      1.74284764	    -19.12163145	    -13.96757301	      0.00000000	      0.00000000	     58.16947951	     -2.09905513	     -3.66488773	     59.84327565	      1.04446220	     -4.52654813	     -6.74076755	      0.00000000	      0.00000000	    -72.71784698	     -7.73838298	     -3.03612142	     88.92813597	    -34.18720522	     39.47371231	     65.21841238	     40.22993727	      0.00000000	      0.00000000	     89.56316700	    -16.85598557	     34.57061723	     68.31099888	     36.61662823	      0.00000000	      0.00000000
      7.53500000	     -7.39582077	      6.34343475	      0.57624634	      0.19066452	      1.06102309	     -0.29689810	      0.00000000	      0.50000000	      0.00000000	      0.25000000	     64.27137885	     -9.55716868	      8.72245581	    101.89487288	      1.77840102	    -18.55802017	    -13.62614501	      0.00000000	      0.00000000	     56.03571767	     -1.84717109	     -4.13134914	     57.20569563	      0.99842774	     -6.24097189	     -7.28334291	      0.00000000	      0.00000000	    -73.12176410	     -7.97108322	     -3.38016847	     88.95016508	    -33.97342070	     39.23925967	     65.40879438	     40.20730805	      0.00000000	      0.00000000	     89.56817200	    -17.02569802	     34.40801807	     68.31829291	     36.52396390	      0.00000000	      0.00000000
      7.54000000	     -7.31959719	      5.75119020	      0.26425270	      0.19042004	      1.06038032	     -0.29717356	      0.00000000	      0.50000000	      0.00000000	      0.25000000	     65.64397619	     -8.90468898	      8.59217720	    103.81772779	      1.81196117	    -18.04890888	    -13.78048696	      0.00000000	      0.00000000	     54.49465951	     -2.28046808	     -3.74994252	     55.09314367	      0.96155675	     -7.07320265	     -6.84707126	      0.00000000	      0.00000000	    -73.04217718	     -7.74966064	     -2.71681211	     89.04673276	    -33.77018418	     39.21499508	     65.46945741	     40.20746117	      0.00000000	      0.00000000	     89.54561407	    -17.24144761	     34.28090542	     68.35595569	     36.50763582	      0.00000000	      0.00000000
      7.54500000	     -6.89697371	      5.78700386	     -0.22008852	      0.19041741	      1.06080259	     -0.29727376	      0.00000000	      0.50000000	      0.00000000	      0.25000000	     66.76053008	     -8.57074295	      9.07540646	    105.68215729	      1.84450161	    -17.20108501	    -13.38582183	      0.00000000	      0.00000000	     52.27595460	     -2.41186925	     -4.15078368	     52.56262561	      0.91739088	     -8.52960131	     -6.68620290	      0.00000000	      0.00000000	    -73.45889875	     -7.94184676	     -2.69088281	     89.09227092	    -33.52863587	     39.01510401	     65.69811848	     40.18114176	      0.00000000	      0.00000000	     89.53200201	    -17.45309841	     34.22049115	     68.34950948	     36.44280342	      0.00000000	      0.00000000
      7.55000000	     -6.87094708	      5.18438840	     -0.54993451	      0.19020697	      1.06021920	     -0.29763802	      0.00000000	      0.50000000	      0.00000000	      0.25000000	     68.21352012	     -7.93973450	      8.90516761	    107.43250441	      1.87505093	    -16.64743749	    -13.42939675	      0.00000000	      0.00000000	     50.73492565	     -2.88646913	     -3.83474315	     50.52940527	      0.88190449	     -9.16632162	     -6.32825797	      0.00000000	      0.00000000	    -73.33733521	     -7.67603790	     -1.99810096	     89.19905030	    -33.30394601	     38.98157632	     65.77728553	     40.17659877	      0.00000000	      0.00000000	     89.50664547	    -17.66049424	     34.12898508	     68.38245616	     36.42789083	      0.00000000	      0.00000000
      7.55500000	     -6.45682710	      5.22466700	     -1.03524841	      0.19029020	      1.06068658	     -0.29777042	      0.00000000	      0.50000000	      0.00000000	      0.25000000	     69.36682499	     -7.61841386	      9.44771161	    109.16795594	      1.90534027	    -15.56491673	    -11.99561478	      0.00000000	      0.00000000	     48.50101945	     -2.98708918	     -4.25677104	     48.09565340	      0.83942751	    -10.53278296	     -6.21654551	      0.00000000	      0.00000000	    -73.76859727	     -7.84767897	     -2.07208656	     89.20373866	    -32.83235849	     38.35790412	     66.25872196	     40.04412943	      0.00000000	      0.00000000	     89.49425416	    -18.02808021	     34.11351420	     68.40289668	     36.31028346	      0.00000000	      0.00000000
      7.56000000	     -6.39115725	      4.73467338	     -1.39888097	      0.19023860	      1.06033254	     -0.29803972	      0.00000000	      0.50000000	      0.00000000	      0.25000000	     70.79173226	     -7.07164823	      9.27655034	    110.78378699	      1.93354184	    -14.59567507	    -12.26919939	      0.00000000	      0.00000000	     46.93247665	     -3.53760921	     -4.32893942	     46.17820168	      0.80596166	    -11.48489698	     -5.48269952	      0.00000000	      0.00000000	    -73.72177798	     -7.69176783	     -1.47166874	     89.25314912	    -32.57845224	     38.25661582	     66.35422667	     40.00520403	      0.00000000	      0.00000000	     89.45910870	    -18.25092157	     34.06178511	     68.39034809	     36.27951561	      0.00000000	      0.00000000
